# xmcd CD database file
#
# Track frame offsets:
#	150
#	21328
#	55216
#	75670
#	86487
#	104402
#	125353
#	153319
#	167033
#	186573
#
# Disc length: 2739 seconds
#
# Revision: 0
# Processed by: cddbd v1.5.1PL0 Copyright (c) Steve Scherf et al.
# Submitted via: CDex 1.50
#
DISCID=7d0ab10a
DTITLE=Anatole Gersimov - Karmadon Blues
DYEAR=2003
DGENRE=Jazz
TTITLE0=Karmadon Blues (If only)
TTITLE1=In the Mountains
TTITLE2=Wanderer
TTITLE3=October
TTITLE4=Lazy
TTITLE5=Dania
TTITLE6=Brother Bear
TTITLE7=In the Country
TTITLE8=Boomer
TTITLE9=Lullaby
EXTD=YEAR: 2003
EXTT0=
EXTT1=
EXTT2=
EXTT3=
EXTT4=
EXTT5=
EXTT6=
EXTT7=
EXTT8=
EXTT9=
PLAYORDER=
